<svg width="12" height="12" viewBox="0 0 12 12" fill="none" xmlns="http://www.w3.org/2000/svg">
<g id="ant-design:dribbble-outlined">
<path id="Vector" d="M6 1.125C3.31172 1.125 1.125 3.31172 1.125 6C1.125 8.68828 3.31172 10.875 6 10.875C8.68828 10.875 10.875 8.68828 10.875 6C10.875 3.31172 8.68828 1.125 6 1.125ZM9.22383 3.37266C9.80391 4.08164 10.1555 4.98398 10.1637 5.96719C10.0266 5.93789 8.64961 5.65898 7.26445 5.83359C7.23516 5.76211 7.20586 5.69063 7.17539 5.61914C7.08867 5.41641 6.99609 5.21367 6.89883 5.01562C8.4375 4.38633 9.13594 3.49219 9.22383 3.37266ZM6 1.84219C7.0582 1.84219 8.025 2.23945 8.75977 2.89102C8.68477 2.99766 8.05781 3.84023 6.57773 4.3957C5.8957 3.1418 5.13984 2.11289 5.02383 1.9582C5.34375 1.88086 5.6707 1.84219 6 1.84219ZM4.2293 2.23828C4.33945 2.38828 5.08359 3.4207 5.77266 4.64648C3.825 5.16328 2.10938 5.15625 1.92305 5.15391C2.19375 3.86133 3.06445 2.78789 4.2293 2.23828ZM1.83633 6.00586C1.83633 5.96367 1.8375 5.92031 1.83867 5.87813C2.02031 5.88164 4.03828 5.90742 6.11836 5.28516C6.23789 5.51836 6.35156 5.75508 6.45586 5.9918C6.40078 6.00703 6.3457 6.02344 6.2918 6.04102C4.14375 6.73711 3.00117 8.62969 2.90625 8.79023C2.2418 8.05195 1.83633 7.07578 1.83633 6.00586ZM6 10.1695C5.03672 10.1695 4.14961 9.84141 3.44414 9.29062C3.51914 9.13711 4.36172 7.50938 6.71016 6.69023L6.73711 6.68086C7.32188 8.19961 7.56328 9.47344 7.62539 9.83906C7.11171 10.0586 6.55863 10.1711 6 10.1695ZM8.32617 9.4582C8.28398 9.20508 8.0625 7.98633 7.51758 6.48984C8.82305 6.28125 9.96914 6.62344 10.1109 6.66797C9.92578 7.82578 9.26133 8.82656 8.32617 9.4582Z" fill="#AF48FF"/>
</g>
</svg>
